<?xml version="1.0" standalone="no"?>
<!DOCTYPE svg PUBLIC "-//W3C//DTD SVG 20010904//EN"
 "http://www.w3.org/TR/2001/REC-SVG-20010904/DTD/svg10.dtd">
<svg version="1.0" xmlns="http://www.w3.org/2000/svg"
 width="38.000000pt" height="95.000000pt" viewBox="0 0 38.000000 95.000000"
 preserveAspectRatio="xMidYMid meet">

<g transform="translate(0.000000,95.000000) scale(0.100000,-0.100000)"
fill="#000000" stroke="none">
<path d="M311 924 c0 -11 3 -14 6 -6 3 7 2 16 -1 19 -3 4 -6 -2 -5 -13z"/>
<path d="M336 857 c3 -10 9 -15 12 -12 3 3 0 11 -7 18 -10 9 -11 8 -5 -6z"/>
<path d="M317 634 c-4 -7 2 -47 13 -90 11 -44 18 -90 15 -104 -7 -29 -74 -140
-76 -125 -1 8 -39 -121 -56 -192 -6 -27 6 -118 15 -109 3 4 5 26 3 49 -4 71
33 197 88 299 l51 94 -16 60 c-9 32 -19 75 -23 94 -4 20 -10 30 -14 24z"/>
</g>
</svg>
