<?xml version="1.0" encoding="utf-8"?>
<!-- Svg Vector Icons : http://www.onlinewebfonts.com/icon -->
<!DOCTYPE svg PUBLIC "-//W3C//DTD SVG 1.1//EN" "http://www.w3.org/Graphics/SVG/1.1/DTD/svg11.dtd">
<svg version="1.1" xmlns="http://www.w3.org/2000/svg" xmlns:xlink="http://www.w3.org/1999/xlink" x="0px" y="0px" viewBox="0 0 256 256" enable-background="new 0 0 256 256" xml:space="preserve">
<metadata> Svg Vector Icons : http://www.onlinewebfonts.com/icon </metadata>
<g><g><g><g><g><g><path fill="#000000" d="M127.8,62.1c-13.6,0-24.6,11-24.6,24.6c0,13.6,11,24.6,24.6,24.6c13.6,0,24.6-11,24.6-24.6C152.4,73.1,141.4,62.1,127.8,62.1z"/><path fill="#000000" d="M93.3,74.6h-3.2l-0.3-14.1h-2.2l-0.3,14.1h-2.7l-1.1-13.8h-2.3v14.3h0c0.1,4,1.9,4.8,4.4,5.9v32.6h6.5V81c1.4-0.7,4.2-2.6,4.4-5.9h0V60.8H94L93.3,74.6z"/><path fill="#000000" d="M128,10c-42.7,0-77.3,34.6-77.3,77.3c0,33.9,48.8,120,68.8,153.9c1.8,3,5,4.8,8.5,4.8s6.7-1.8,8.5-4.8c20.1-34,68.8-120,68.8-153.9C205.2,44.6,170.7,10,128,10z M128,147c-33,0-59.8-26.8-59.8-59.8c0-33,26.8-59.8,59.8-59.8c33,0,59.8,26.8,59.8,59.8C187.8,120.2,161,147,128,147z"/><path fill="#000000" d="M127.8,57.7c-16,0-29,13-29,29c0,16,13,29,29,29c16,0,29-13,29-29C156.8,70.7,143.8,57.7,127.8,57.7z M127.8,113.2c-14.6,0-26.5-11.9-26.5-26.5c0-14.6,11.9-26.5,26.5-26.5c14.6,0,26.5,11.9,26.5,26.5C154.3,101.3,142.4,113.2,127.8,113.2z"/><path fill="#000000" d="M168.4,59.8h-6.5v53.7h6.5V85.1h5.6C177.3,71,168.4,59.8,168.4,59.8z"/></g></g></g></g><g></g><g></g><g></g><g></g><g></g><g></g><g></g><g></g><g></g><g></g><g></g><g></g><g></g><g></g><g></g></g></g>
</svg>